<svg xmlns="http://www.w3.org/2000/svg" xmlns:xlink="http://www.w3.org/1999/xlink" version="1.1" width="1080" height="1080" viewBox="0 0 1080 1080" xml:space="preserve">
<defs>
</defs>
<rect x="0" y="0" width="800px" height="800px" fill="transparent"></rect>
<g transform="matrix(1 0 0 1 540 540)" id="73bc82ce-4fa5-46a8-a00c-a2bbb7940ffd"  >
</g>
<g transform="matrix(1 0 0 1 540 540)" id="e2a16ae3-b429-4956-88b4-8afe65a6606c"  >
<rect style="stroke: none; stroke-width: 1; stroke-dasharray: none; stroke-linecap: butt; stroke-dashoffset: 0; stroke-linejoin: miter; stroke-miterlimit: 4; fill: rgb(255,255,255); fill-rule: nonzero; opacity: 1; visibility: hidden;" vector-effect="non-scaling-stroke"  x="-540" y="-540" rx="0" ry="0" width="1080" height="1080" />
</g>
<g transform="matrix(33.33 0 0 33.33 726.03 726.03)"  >
<path style="stroke: none; stroke-width: 1; stroke-dasharray: none; stroke-linecap: butt; stroke-dashoffset: 0; stroke-linejoin: miter; stroke-miterlimit: 4; fill: rgb(28,39,76); fill-rule: evenodd; opacity: 1;" vector-effect="non-scaling-stroke"  transform=" translate(-17.58, -17.58)" d="M 21.3023 13.1628 C 21.6876 13.1628 22 13.4752 22 13.8605 L 22 13.9129 C 22 15.6225 22 16.9766 21.8575 18.0363 C 21.7109 19.1269 21.402 20.0097 20.7058 20.7058 C 20.0097 21.402 19.1269 21.7109 18.0363 21.8575 C 16.9766 22 15.6225 22 13.9129 22 L 13.8605 22 C 13.4752 22 13.1628 21.6876 13.1628 21.3023 C 13.1628 20.917 13.4752 20.6047 13.8605 20.6047 C 15.6343 20.6047 16.8944 20.6032 17.8504 20.4746 C 18.7863 20.3488 19.3255 20.1128 19.7192 19.7192 C 20.1128 19.3255 20.3488 18.7863 20.4746 17.8504 C 20.6032 16.8944 20.6047 15.6343 20.6047 13.8605 C 20.6047 13.4752 20.917 13.1628 21.3023 13.1628 Z" stroke-linecap="round" />
</g>
<g transform="matrix(33.33 0 0 33.33 353.94 726.03)"  >
<path style="stroke: none; stroke-width: 1; stroke-dasharray: none; stroke-linecap: butt; stroke-dashoffset: 0; stroke-linejoin: miter; stroke-miterlimit: 4; fill: rgb(28,39,76); fill-rule: evenodd; opacity: 1;" vector-effect="non-scaling-stroke"  transform=" translate(-6.42, -17.58)" d="M 2.69768 13.1628 C 3.08299 13.1628 3.39535 13.4752 3.39535 13.8605 C 3.39535 15.6343 3.39683 16.8944 3.52536 17.8504 C 3.65119 18.7863 3.88716 19.3255 4.28084 19.7192 C 4.67452 20.1128 5.21373 20.3488 6.14963 20.4746 C 7.10559 20.6032 8.36575 20.6047 10.1395 20.6047 C 10.5248 20.6047 10.8372 20.917 10.8372 21.3023 C 10.8372 21.6876 10.5248 22 10.1395 22 L 10.0871 22 C 8.37751 22 7.02344 22 5.9637 21.8575 C 4.87307 21.7109 3.99033 21.402 3.29418 20.7058 C 2.59803 20.0097 2.28908 19.1269 2.14245 18.0363 C 1.99997 16.9766 1.99999 15.6225 2 13.9129 C 2 13.8955 2 13.878 2 13.8605 C 2 13.4752 2.31236 13.1628 2.69768 13.1628 Z" stroke-linecap="round" />
</g>
<g transform="matrix(33.33 0 0 33.33 353.94 353.94)"  >
<path style="stroke: none; stroke-width: 1; stroke-dasharray: none; stroke-linecap: butt; stroke-dashoffset: 0; stroke-linejoin: miter; stroke-miterlimit: 4; fill: rgb(28,39,76); fill-rule: evenodd; opacity: 1;" vector-effect="non-scaling-stroke"  transform=" translate(-6.42, -6.42)" d="M 10.0871 2 L 10.1395 2 C 10.5249 2 10.8372 2.31236 10.8372 2.69768 C 10.8372 3.08299 10.5249 3.39535 10.1395 3.39535 C 8.36575 3.39535 7.10559 3.39683 6.14963 3.52536 C 5.21373 3.65119 4.67452 3.88716 4.28084 4.28084 C 3.88716 4.67452 3.65119 5.21373 3.52536 6.14963 C 3.39683 7.10559 3.39535 8.36575 3.39535 10.1395 C 3.39535 10.5248 3.08299 10.8372 2.69768 10.8372 C 2.31236 10.8372 2 10.5248 2 10.1395 L 2 10.0871 C 1.99999 8.37751 1.99997 7.02343 2.14245 5.9637 C 2.28908 4.87307 2.59803 3.99033 3.29418 3.29418 C 3.99033 2.59803 4.87308 2.28908 5.9637 2.14245 C 7.02343 1.99997 8.37751 1.99999 10.0871 2 Z" stroke-linecap="round" />
</g>
<g transform="matrix(33.33 0 0 33.33 726.03 353.94)"  >
<path style="stroke: none; stroke-width: 1; stroke-dasharray: none; stroke-linecap: butt; stroke-dashoffset: 0; stroke-linejoin: miter; stroke-miterlimit: 4; fill: rgb(28,39,76); fill-rule: evenodd; opacity: 1;" vector-effect="non-scaling-stroke"  transform=" translate(-17.58, -6.42)" d="M 17.8504 3.52536 C 16.8944 3.39683 15.6343 3.39535 13.8605 3.39535 C 13.4752 3.39535 13.1628 3.08299 13.1628 2.69768 C 13.1628 2.31236 13.4752 2 13.8605 2 C 13.878 2 13.8955 2 13.9129 2 C 15.6225 1.99999 16.9766 1.99997 18.0363 2.14245 C 19.1269 2.28908 20.0097 2.59803 20.7058 3.29418 C 21.402 3.99033 21.7109 4.87307 21.8575 5.9637 C 22 7.02344 22 8.37751 22 10.0871 L 22 10.1395 C 22 10.5249 21.6876 10.8372 21.3023 10.8372 C 20.917 10.8372 20.6047 10.5249 20.6047 10.1395 C 20.6047 8.36575 20.6032 7.10559 20.4746 6.14963 C 20.3488 5.21373 20.1128 4.67452 19.7192 4.28084 C 19.3255 3.88716 18.7863 3.65119 17.8504 3.52536 Z" stroke-linecap="round" />
</g>
<g transform="matrix(33.33 0 0 33.33 458.63 487.69)"  >
<path style="stroke: none; stroke-width: 1; stroke-dasharray: none; stroke-linecap: butt; stroke-dashoffset: 0; stroke-linejoin: miter; stroke-miterlimit: 4; fill: rgb(28,39,76); fill-rule: nonzero; opacity: 1;" vector-effect="non-scaling-stroke"  transform=" translate(-9.56, -10.43)" d="M 10.373 10.4309 C 10.373 11.1052 10.0086 11.6518 9.55907 11.6518 C 9.10954 11.6518 8.74512 11.1052 8.74512 10.4309 C 8.74512 9.75659 9.10954 9.20996 9.55907 9.20996 C 10.0086 9.20996 10.373 9.75659 10.373 10.4309 Z" stroke-linecap="round" />
</g>
<g transform="matrix(33.33 0 0 33.33 621.42 487.69)"  >
<path style="stroke: none; stroke-width: 1; stroke-dasharray: none; stroke-linecap: butt; stroke-dashoffset: 0; stroke-linejoin: miter; stroke-miterlimit: 4; fill: rgb(28,39,76); fill-rule: nonzero; opacity: 1;" vector-effect="non-scaling-stroke"  transform=" translate(-14.44, -10.43)" d="M 15.2567 10.4309 C 15.2567 11.1052 14.8923 11.6518 14.4428 11.6518 C 13.9933 11.6518 13.6288 11.1052 13.6288 10.4309 C 13.6288 9.75659 13.9933 9.20996 14.4428 9.20996 C 14.8923 9.20996 15.2567 9.75659 15.2567 10.4309 Z" stroke-linecap="round" />
</g>
<g transform="matrix(-33.33 0 0 -33.33 540.02 650.49)"  >
<path style="stroke: none; stroke-width: 1; stroke-dasharray: none; stroke-linecap: butt; stroke-dashoffset: 0; stroke-linejoin: miter; stroke-miterlimit: 4; fill: rgb(28,39,76); fill-rule: nonzero; opacity: 1;" vector-effect="non-scaling-stroke"  transform=" translate(-12, -15.31)" d="M 9.92259 14.4172 C 9.65174 14.2164 9.26941 14.2733 9.06864 14.5441 C 8.86787 14.815 8.92469 15.1973 9.19555 15.3981 C 9.98705 15.9847 10.955 16.3321 12.0009 16.3321 C 13.0468 16.3321 14.0148 15.9847 14.8063 15.3981 C 15.0772 15.1973 15.134 14.815 14.9332 14.5441 C 14.7325 14.2733 14.3501 14.2164 14.0793 14.4172 C 13.4864 14.8566 12.7708 15.1111 12.0009 15.1111 C 11.231 15.1111 10.5154 14.8566 9.92259 14.4172 Z" stroke-linecap="round" />
</g>
<g transform="matrix(33.33 0 0 33.33 458.62 487.68)"  >
<path style="stroke: none; stroke-width: 1; stroke-dasharray: none; stroke-linecap: butt; stroke-dashoffset: 0; stroke-linejoin: miter; stroke-miterlimit: 4; fill: rgb(28,39,76); fill-rule: nonzero; opacity: 0.5;" vector-effect="non-scaling-stroke"  transform=" translate(-9.56, -10.43)" d="M 10.3725 10.4307 C 10.3725 11.105 10.0081 11.6516 9.55859 11.6516 C 9.10906 11.6516 8.74464 11.105 8.74464 10.4307 C 8.74464 9.75639 9.10906 9.20976 9.55859 9.20976 C 10.0081 9.20976 10.3725 9.75639 10.3725 10.4307 Z" stroke-linecap="round" />
</g>
<g transform="matrix(33.33 0 0 33.33 540 540)"  >
<path style="stroke: none; stroke-width: 1; stroke-dasharray: none; stroke-linecap: butt; stroke-dashoffset: 0; stroke-linejoin: miter; stroke-miterlimit: 4; fill: rgb(28,39,76); fill-rule: evenodd; opacity: 0.5;" vector-effect="non-scaling-stroke"  transform=" translate(-12, -12)" d="M 10.14 4.55859 L 13.8609 4.55859 C 16.492 4.55859 17.8076 4.55859 18.6249 5.37597 C 19.4423 6.19335 19.4423 7.50889 19.4423 10.14 L 19.4423 13.8609 C 19.4423 16.492 19.4423 17.8076 18.6249 18.6249 C 17.8076 19.4423 16.492 19.4423 13.8609 19.4423 L 10.14 19.4423 C 7.50889 19.4423 6.19335 19.4423 5.37597 18.6249 C 4.55859 17.8076 4.55859 16.492 4.55859 13.8609 L 4.55859 10.14 C 4.55859 7.50889 4.55859 6.19335 5.37597 5.37597 C 6.19335 4.55859 7.50889 4.55859 10.14 4.55859 Z M 9.06817 14.5439 C 9.26893 14.2731 9.65126 14.2162 9.92212 14.417 C 10.5149 14.8564 11.2305 15.1109 12.0005 15.1109 C 12.7704 15.1109 13.486 14.8564 14.0788 14.417 C 14.3496 14.2162 14.732 14.2731 14.9327 14.5439 C 15.1335 14.8148 15.0767 15.1971 14.8058 15.3979 C 14.0143 15.9845 13.0464 16.3319 12.0005 16.3319 C 10.9545 16.3319 9.98657 15.9845 9.19507 15.3979 C 8.92422 15.1971 8.8674 14.8148 9.06817 14.5439 Z M 14.4423 11.6516 C 14.8918 11.6516 15.2563 11.105 15.2563 10.4307 C 15.2563 9.75639 14.8918 9.20976 14.4423 9.20976 C 13.9928 9.20976 13.6284 9.75639 13.6284 10.4307 C 13.6284 11.105 13.9928 11.6516 14.4423 11.6516 Z M 9.55859 11.6516 C 10.0081 11.6516 10.3725 11.105 10.3725 10.4307 C 10.3725 9.75639 10.0081 9.20976 9.55859 9.20976 C 9.10906 9.20976 8.74464 9.75639 8.74464 10.4307 C 8.74464 11.105 9.10906 11.6516 9.55859 11.6516 Z" stroke-linecap="round" />
</g>
<g transform="matrix(33.33 0 0 33.33 621.41 487.68)"  >
<path style="stroke: none; stroke-width: 1; stroke-dasharray: none; stroke-linecap: butt; stroke-dashoffset: 0; stroke-linejoin: miter; stroke-miterlimit: 4; fill: rgb(28,39,76); fill-rule: nonzero; opacity: 0.5;" vector-effect="non-scaling-stroke"  transform=" translate(-14.44, -10.43)" d="M 15.2563 10.4307 C 15.2563 11.105 14.8918 11.6516 14.4423 11.6516 C 13.9928 11.6516 13.6284 11.105 13.6284 10.4307 C 13.6284 9.75639 13.9928 9.20976 14.4423 9.20976 C 14.8918 9.20976 15.2563 9.75639 15.2563 10.4307 Z" stroke-linecap="round" />
</g>
<g transform="matrix(33.33 0 0 33.33 540 650.47)"  >
<path style="stroke: none; stroke-width: 1; stroke-dasharray: none; stroke-linecap: butt; stroke-dashoffset: 0; stroke-linejoin: miter; stroke-miterlimit: 4; fill: rgb(28,39,76); fill-rule: nonzero; opacity: 0.5;" vector-effect="non-scaling-stroke"  transform=" translate(-12, -15.31)" d="M 9.92212 14.417 C 9.65126 14.2162 9.26893 14.2731 9.06817 14.5439 C 8.8674 14.8148 8.92422 15.1971 9.19507 15.3979 C 9.98657 15.9845 10.9545 16.3319 12.0005 16.3319 C 13.0464 16.3319 14.0143 15.9845 14.8058 15.3979 C 15.0767 15.1971 15.1335 14.8148 14.9327 14.5439 C 14.732 14.2731 14.3496 14.2162 14.0788 14.417 C 13.486 14.8564 12.7704 15.1109 12.0005 15.1109 C 11.2305 15.1109 10.5149 14.8564 9.92212 14.417 Z" stroke-linecap="round" />
</g>
</svg>